<mxfile host="app.diagrams.net" modified="2021-09-07T12:53:30.296Z" agent="5.0 (X11; Linux x86_64) AppleWebKit/537.36 (KHTML, like Gecko) Chrome/94.0.4606.31 Safari/537.36" etag="wnDCQMjdT0y7cIsEu1py" version="15.1.0" type="github">
  <diagram id="5tE1hKee_uBbk2fImYP0" name="Page-1">
    <mxGraphModel dx="1422" dy="757" grid="1" gridSize="10" guides="1" tooltips="1" connect="1" arrows="1" fold="1" page="1" pageScale="1" pageWidth="690" pageHeight="980" math="0" shadow="0">
      <root>
        <mxCell id="0" />
        <mxCell id="1" parent="0" />
        <mxCell id="ZyjHEj6RFu9bMXRZlmml-1" value="" style="ellipse;html=1;shape=endState;fillColor=#000000;strokeColor=#ff0000;" vertex="1" parent="1">
          <mxGeometry x="330" y="510" width="30" height="30" as="geometry" />
        </mxCell>
        <mxCell id="ZyjHEj6RFu9bMXRZlmml-2" value="" style="ellipse;html=1;shape=startState;fillColor=#000000;strokeColor=#ff0000;" vertex="1" parent="1">
          <mxGeometry x="330" y="40" width="30" height="30" as="geometry" />
        </mxCell>
        <mxCell id="ZyjHEj6RFu9bMXRZlmml-3" value="" style="edgeStyle=orthogonalEdgeStyle;html=1;verticalAlign=bottom;endArrow=open;endSize=8;strokeColor=#ff0000;entryX=0.5;entryY=0;entryDx=0;entryDy=0;" edge="1" source="ZyjHEj6RFu9bMXRZlmml-2" parent="1" target="ZyjHEj6RFu9bMXRZlmml-4">
          <mxGeometry relative="1" as="geometry">
            <mxPoint x="335" y="130" as="targetPoint" />
          </mxGeometry>
        </mxCell>
        <mxCell id="ZyjHEj6RFu9bMXRZlmml-10" style="edgeStyle=orthogonalEdgeStyle;rounded=0;orthogonalLoop=1;jettySize=auto;html=1;exitX=0.5;exitY=1;exitDx=0;exitDy=0;entryX=0.5;entryY=0;entryDx=0;entryDy=0;" edge="1" parent="1" source="ZyjHEj6RFu9bMXRZlmml-4" target="ZyjHEj6RFu9bMXRZlmml-5">
          <mxGeometry relative="1" as="geometry" />
        </mxCell>
        <mxCell id="ZyjHEj6RFu9bMXRZlmml-4" value="Input: a (number)" style="html=1;" vertex="1" parent="1">
          <mxGeometry x="290" y="130" width="110" height="50" as="geometry" />
        </mxCell>
        <mxCell id="ZyjHEj6RFu9bMXRZlmml-11" style="edgeStyle=orthogonalEdgeStyle;rounded=0;orthogonalLoop=1;jettySize=auto;html=1;exitX=0.5;exitY=1;exitDx=0;exitDy=0;entryX=0.5;entryY=0;entryDx=0;entryDy=0;" edge="1" parent="1" source="ZyjHEj6RFu9bMXRZlmml-5" target="ZyjHEj6RFu9bMXRZlmml-6">
          <mxGeometry relative="1" as="geometry" />
        </mxCell>
        <mxCell id="ZyjHEj6RFu9bMXRZlmml-5" value="b = a ** a" style="html=1;" vertex="1" parent="1">
          <mxGeometry x="290" y="250" width="110" height="50" as="geometry" />
        </mxCell>
        <mxCell id="ZyjHEj6RFu9bMXRZlmml-12" style="edgeStyle=orthogonalEdgeStyle;rounded=0;orthogonalLoop=1;jettySize=auto;html=1;exitX=0.5;exitY=1;exitDx=0;exitDy=0;entryX=0.5;entryY=0;entryDx=0;entryDy=0;" edge="1" parent="1" source="ZyjHEj6RFu9bMXRZlmml-6" target="ZyjHEj6RFu9bMXRZlmml-1">
          <mxGeometry relative="1" as="geometry" />
        </mxCell>
        <mxCell id="ZyjHEj6RFu9bMXRZlmml-6" value="Display b" style="html=1;" vertex="1" parent="1">
          <mxGeometry x="290" y="380" width="110" height="50" as="geometry" />
        </mxCell>
      </root>
    </mxGraphModel>
  </diagram>
</mxfile>
